<svg xmlns="http://www.w3.org/2000/svg" width="72" height="72" viewBox="0 0 200 170">
  <path d="M90.0399 5.3132 13.8366 36.836c-4.2362 1.7521-4.1914 7.7752.0665 9.4643l76.5081 30.3504a30.5916 30.5916 0 0 0 22.6385 0l76.5082-30.3504c4.2578-1.6891 4.3036-7.7122.0665-9.4643L113.0202 5.3132a30.5916 30.5916 0 0 0-22.9803 0Z" fill="#FFBF00"/>
  <path d="M108.9395 95.5471v75.7857a5.0911 5.0911 0 0 0 6.9912 4.7287l85.2664-33.0775a5.0907 5.0907 0 0 0 3.2078-4.7287V62.4696a5.0911 5.0911 0 0 0-6.9912-4.7287l-85.2664 33.0775a5.0907 5.0907 0 0 0-3.2078 4.7287Z" fill="#26C2FF"/>
  <path d="M89.0775 99.8624 63.7641 112.0834 6.5961 139.4845c-2.6584 1.2825-5.6809-.4576-5.6809-3.408V62.7846c0-1.0673.5478-1.9894 1.2826-2.6843a4.5547 4.5547 0 0 1 1.0125-.7333 4.9966 4.9966 0 0 1 4.0871-.2433l81.6189 32.3192c4.1417 1.6411 4.4682 7.4072.1612 9.2295Z" fill="#ED3049"/>
  <path d="M89.0775 99.8624 63.7641 112.0834 6.7726 58.7237a4.9966 4.9966 0 0 1 2.116.3954l81.6189 32.3192c4.1417 1.6411 4.4682 7.4072.1612 9.2295Z" fill="#C62842" opacity="0.35"/>
</svg>
