<svg xmlns="http://www.w3.org/2000/svg" width="68" height="62" viewBox="0 0 87.3 78">
  <path fill="#0066DA" d="M6.6 66.85l3.85 6.65c.8 1.4 1.95 2.5 3.3 3.3l13.75-23.8H0c0 1.55.4 3.1 1.2 4.5z"/>
  <path fill="#00AC47" d="M43.65 25L29.9 1.2c-1.35.8-2.5 1.9-3.3 3.3L1.2 48.55C.4 49.95 0 51.5 0 53.05h27.5z"/>
  <path fill="#EA4335" d="M73.55 76.8c1.35-.8 2.5-1.9 3.3-3.3l1.6-2.75 7.65-13.2c.8-1.4 1.2-2.95 1.2-4.5H59.8l5.85 11.5z"/>
  <path fill="#00832D" d="M43.65 25L57.4 1.2C56.05.4 54.5 0 52.9 0H34.4c-1.6 0-3.15.45-4.5 1.2z"/>
  <path fill="#2684FC" d="M59.8 53.05H27.5L13.75 76.85c1.35.8 2.9 1.2 4.5 1.2h50.8c1.6 0 3.15-.45 4.5-1.2z"/>
  <path fill="#FFBA00" d="M73.4 26.5L60.75 4.5c-.8-1.4-1.95-2.5-3.3-3.3L43.65 25l16.15 28.05h27.45c0-1.55-.4-3.1-1.2-4.5z"/>
</svg>
