<svg xmlns="http://www.w3.org/2000/svg" width="72" height="72" viewBox="0 0 220 240" fill="none">
  <path d="M164 84.3V58.6a19.8 19.8 0 0 0 11.4-17.8v-.6a19.8 19.8 0 0 0-19.8-19.8h-.6A19.8 19.8 0 0 0 135.2 40v.6A19.8 19.8 0 0 0 146.6 58.4v25.9a56 56 0 0 0-26.6 11.7L49.6 41.2a22.4 22.4 0 1 0-10.5 13.6l69.2 53.8a56.2 56.2 0 0 0 .9 63.4l-21 21a18.1 18.1 0 0 0-5.2-.8 18.3 18.3 0 1 0 18.3 18.3 18.1 18.1 0 0 0-.8-5.2l20.8-20.8A56.2 56.2 0 1 0 164 84.3Zm-25.6 84.2a28.8 28.8 0 1 1 28.8-28.8 28.8 28.8 0 0 1-28.8 28.8Z" fill="#FF7A59"/>
</svg>
