<svg xmlns="http://www.w3.org/2000/svg" width="72" height="72" viewBox="0 0 244 244" fill="none">
  <path d="M152.6 122a72.3 72.3 0 0 1-4.6 25.4 72.3 72.3 0 0 1-25.4 4.6h-.4a72.3 72.3 0 0 1-25.4-4.6A72.3 72.3 0 0 1 91.4 122v-.4a72.3 72.3 0 0 1 4.6-25.4 72.4 72.4 0 0 1 25.4-4.6h.4a72.3 72.3 0 0 1 25.4 4.6 72.3 72.3 0 0 1 4.6 25.4v.4Zm89-18.2h-67.8l47.9-47.9a122.4 122.4 0 0 0-13.2-15.6 122.4 122.4 0 0 0-15.6-13.2l-47.9 47.9V2.7A122.6 122.6 0 0 0 122.2 0h-.4a122.6 122.6 0 0 0-22.8 2.7v67.8L50.1 22.6A121.8 121.8 0 0 0 34.5 35.8 122.7 122.7 0 0 0 21.3 51.4l48 47.9H2.7S0 114.4 0 121.8v.4c0 7.4 .9 14.6 2.7 21.7h67.8l-47.9 48a122.7 122.7 0 0 0 28.8 28.8l47.9-48v67.9a123 123 0 0 0 22.7 2.7h.5a123 123 0 0 0 22.7-2.7v-67.9l48 48a122.8 122.8 0 0 0 15.6-13.2 122.8 122.8 0 0 0 13.2-15.6l-48-48h67.9a123 123 0 0 0 2.7-22.6v-.6a123 123 0 0 0-2.7-22.6Z" fill="#FF4F00"/>
</svg>
